HIERARCHY
ROOT hip
{
	OFFSET 0.00000 0.00000 0.00000
	CHANNELS 6 Xposition Yposition Zposition Zrotation Yrotation Xrotation 
	JOINT lhipjoint
	{
		OFFSET 0 0 0
		CHANNELS 3 Zrotation Yrotation Xrotation
		JOINT lfemur
		{
			OFFSET 1.56372 -1.72799 0.70867
			CHANNELS 3 Zrotation Yrotation Xrotation
			JOINT ltibia
			{
				OFFSET 2.35130 -6.46015 0.00000
				CHANNELS 3 Zrotation Yrotation Xrotation
				JOINT lfoot
				{
					OFFSET 2.61200 -7.17641 0.00000
					CHANNELS 3 Zrotation Yrotation Xrotation
					JOINT ltoes
					{
						OFFSET 0.14331 -0.39375 2.14044
						CHANNELS 3 Zrotation Yrotation Xrotation
						End Site
						{
							OFFSET 0.00000 -0.00000 1.09828
						}
					}
				}
			}
		}
	}
	JOINT rhipjoint
	{
		OFFSET 0 0 0
		CHANNELS 3 Zrotation Yrotation Xrotation
		JOINT rfemur
		{
			OFFSET -1.44129 -1.72798 0.70867
			CHANNELS 3 Zrotation Yrotation Xrotation
			JOINT rtibia
			{
				OFFSET -2.37728 -6.53152 0.00000
				CHANNELS 3 Zrotation Yrotation Xrotation
				JOINT rfoot
				{
					OFFSET -2.57235 -7.06747 0.00000
					CHANNELS 3 Zrotation Yrotation Xrotation
					JOINT rtoes
					{
						OFFSET -0.16712 -0.45916 2.29203
						CHANNELS 3 Zrotation Yrotation Xrotation
						End Site
						{
							OFFSET -0.00000 -0.00000 1.17668
						}
					}
				}
			}
		}
	}
	JOINT lowerback
	{
		OFFSET 0 0 0
		CHANNELS 3 Zrotation Yrotation Xrotation
		JOINT upperback
		{
			OFFSET -0.00494 2.11492 -0.01060
			CHANNELS 3 Zrotation Yrotation Xrotation
			JOINT thorax
			{
				OFFSET -0.00311 2.11673 -0.03832
				CHANNELS 3 Zrotation Yrotation Xrotation
				JOINT lowerneck
				{
					OFFSET 0 0 0
					CHANNELS 3 Zrotation Yrotation Xrotation
					JOINT upperneck
					{
						OFFSET -0.02660 1.69767 0.15040
						CHANNELS 3 Zrotation Yrotation Xrotation
						JOINT head
						{
							OFFSET 0.04444 1.62590 -0.48311
							CHANNELS 3 Zrotation Yrotation Xrotation
							End Site
							{
								OFFSET 0.01946 1.72260 -0.18002
							}
						}
					}
				}
				JOINT lclavicle
				{
					OFFSET 0 0 0
					CHANNELS 3 Zrotation Yrotation Xrotation
					JOINT lhumerus
					{
						OFFSET 3.49860 1.01778 -0.70261
						CHANNELS 3 Zrotation Yrotation Xrotation
						JOINT lradius
						{
							OFFSET 4.96035 -0.00000 -0.00000
							CHANNELS 3 Zrotation Yrotation Xrotation
							JOINT lwrist
							{
								OFFSET 3.20505 -0.00000 0.00000
								CHANNELS 3 Zrotation Yrotation Xrotation
								JOINT lhand
								{
									OFFSET 0 0 0
									CHANNELS 3 Zrotation Yrotation Xrotation
									JOINT lfingers
									{
										OFFSET 0.83669 -0.00000 -0.00000
										CHANNELS 3 Zrotation Yrotation Xrotation
										End Site
										{
											OFFSET 0.67456 -0.00000 -0.00000
										}
									}
								}
								JOINT lthumb
								{
									OFFSET 0 0 0
									CHANNELS 3 Zrotation Yrotation Xrotation
									End Site
									{
										OFFSET 0.68486 -0.00000 0.68486
									}
								}
							}
						}
					}
				}
				JOINT rclavicle
				{
					OFFSET 0 0 0
					CHANNELS 3 Zrotation Yrotation Xrotation
					JOINT rhumerus
					{
						OFFSET -3.61294 0.94679 -0.50702
						CHANNELS 3 Zrotation Yrotation Xrotation
						JOINT rradius
						{
							OFFSET -5.02023 -0.00000 0.00000
							CHANNELS 3 Zrotation Yrotation Xrotation
							JOINT rwrist
							{
								OFFSET -3.20652 -0.00000 0.00000
								CHANNELS 3 Zrotation Yrotation Xrotation
								JOINT rhand
								{
									OFFSET 0 0 0
									CHANNELS 3 Zrotation Yrotation Xrotation
									JOINT rfingers
									{
										OFFSET -0.79827 -0.00000 -0.00000
										CHANNELS 3 Zrotation Yrotation Xrotation
										End Site
										{
											OFFSET -0.64359 -0.00000 -0.00000
										}
									}
								}
								JOINT rthumb
								{
									OFFSET 0 0 0
									CHANNELS 3 Zrotation Yrotation Xrotation
									End Site
									{
										OFFSET -0.65342 -0.00000 0.65342
									}
								}
							}
						}
					}
				}
			}
		}
	}
}
MOTION
Frames: 16
Frame Time: 0.033333
8.0890 16.7929 -3.3637 -4532.7000 -95.5081 4549.0300 0.0000 -0.0000 0.0000 -13.8565 -9.0812 -45.4180 3.1974 11.0079 32.3066 0.0944 -3.4387 -5.6105 0.8284 -5.8067 -16.2247 0.0000 -0.0000 0.0000 27.1977 7.5564 -13.3392 -1.9763 -8.8165 25.2231 -0.6150 -0.3156 -14.9354 -0.6086 4.9932 -13.8891 4.1500 2.3086 0.7386 0.2867 3.0358 2.0107 -1.9944 1.5715 1.8541 -2.9851 -0.8695 -16.8701 2.5105 -1.7721 30.5852 1.1627 -0.9903 13.1031 0.0000 0.0000 0.0000 -84.5629 6.5881 28.3178 20.6245 -31.3874 -5.8531 -0.0000 0.0000 -4.5435 19.1651 2.5793 0.8961 -7.1250 0.0000 -0.0000 -6.0142 32.6698 1.8249 0.0000 0.0000 0.0000 84.9176 5.7968 25.1048 -18.1155 28.3048 -4.6039 0.0000 0.0000 18.7193 -25.5401 -11.6508 5.5118 7.1250 -0.0000 -0.0000 1.4789 -42.8474 0.0786
8.1014 16.7852 -3.3497 -4534.0900 -95.4857 4550.5400 0.0000 -0.0000 0.0000 -13.7635 -9.4705 -45.2410 2.5578 9.9423 28.7901 0.1315 -2.4095 -6.4400 0.8400 -5.8462 -16.3389 0.0000 -0.0000 0.0000 27.4391 7.1057 -11.9827 -1.7880 -8.4098 23.9659 -0.5999 -0.3709 -14.7733 -0.6406 5.1203 -14.2521 4.1899 2.3735 0.7595 0.2229 3.1249 1.9976 -2.0818 1.6170 1.8407 -2.9357 -0.8510 -16.9090 2.4270 -1.7180 30.4576 1.1298 -0.9681 13.0549 -0.0000 -0.0000 0.0000 -84.5962 6.8622 27.9988 20.3900 -31.1093 -5.7315 -0.0000 0.0000 -4.7044 19.3081 2.5921 0.9078 -7.1250 0.0000 -0.0000 -5.8999 32.6873 1.7874 -0.0000 -0.0000 0.0000 84.8189 5.8557 25.9156 -18.7172 29.0657 -4.8927 0.0000 0.0000 17.7947 -25.2816 -11.4802 5.3702 7.1250 -0.0000 -0.0000 1.6928 -42.6325 0.0989
8.1124 16.7787 -3.3339 -4535.9400 -95.4595 4552.4900 0.0000 -0.0000 0.0000 -13.4391 -10.0774 -44.8721 1.9993 8.8646 25.3728 0.1731 -1.2506 -7.5184 0.8819 -5.9864 -16.7451 0.0000 -0.0000 0.0000 27.6941 6.6386 -10.5890 -1.5978 -7.9727 22.6311 -0.5734 -0.4988 -14.4949 -0.6893 5.3079 -14.7889 4.2293 2.4211 0.7582 0.1949 3.1874 2.0261 -2.1306 1.6501 1.8791 -2.9514 -0.7952 -17.0250 2.3854 -1.5975 30.3157 1.1351 -0.9174 13.0160 -0.0000 0.0000 0.0000 -84.6876 7.0583 27.6126 20.1064 -30.7703 -5.5857 -0.0000 0.0000 -4.8045 19.4923 2.7007 0.9555 -7.1250 0.0000 -0.0000 -5.7602 32.8069 1.7280 -0.0000 0.0000 0.0000 84.6608 6.0187 26.7433 -19.2847 29.7708 -5.1714 0.0000 0.0000 16.9355 -25.0184 -11.1569 5.1601 7.1250 -0.0000 -0.0000 1.8923 -42.2508 0.1284
8.1227 16.7737 -3.3147 -4537.2000 -95.4516 4553.8200 0.0000 -0.0000 0.0000 -12.8583 -11.1004 -44.2953 1.5335 7.8181 22.1631 0.2162 0.0810 -8.8129 0.9509 -6.2100 -17.3951 0.0000 -0.0000 0.0000 27.8981 6.0416 -9.1894 -1.4185 -7.5322 21.3019 -0.5487 -0.6257 -14.2342 -0.7378 5.4874 -15.3042 4.3096 2.4655 0.7883 0.1331 3.2484 2.0375 -2.2386 1.6829 1.8866 -2.9155 -0.7742 -17.0331 2.3235 -1.5407 30.1273 1.1133 -0.8920 12.9367 -0.0000 -0.0000 0.0000 -84.7285 7.2504 27.3448 19.7949 -30.3945 -5.4272 -0.0000 0.0000 -4.9237 19.7753 2.8486 1.0236 -7.1250 0.0000 -0.0000 -5.5435 32.9712 1.6404 -0.0000 -0.0000 0.0000 84.5887 6.1636 27.2412 -19.7965 30.3964 -5.4280 0.0000 0.0000 16.6025 -24.6022 -10.8577 4.9296 7.1250 -0.0000 -0.0000 2.2305 -41.8815 0.1717
8.1307 16.7613 -3.2953 -4538.5300 -95.3841 4555.1300 0.0000 -0.0000 0.0000 -12.0521 -12.4077 -43.5000 1.1620 6.8434 19.2521 0.2631 1.5184 -10.3655 0.9323 -6.1508 -17.2227 0.0000 -0.0000 0.0000 28.0363 5.4338 -7.7188 -1.2573 -7.1084 20.0369 -0.5259 -0.6754 -13.9599 -0.7743 5.6183 -15.6809 4.3060 2.5110 0.8601 0.0723 3.3110 2.0983 -2.2994 1.7159 1.9171 -2.8527 -0.7403 -17.0587 2.2588 -1.4706 29.9149 1.0877 -0.8574 12.8509 0.0000 -0.0000 0.0000 -84.7582 7.3341 27.0830 19.4054 -29.9193 -5.2315 -0.0000 0.0000 -4.9668 19.9641 2.8998 1.0528 -7.1250 0.0000 -0.0000 -5.3948 33.0309 1.5882 0.0000 -0.0000 0.0000 84.4928 6.3632 27.7445 -20.2862 30.9856 -5.6780 0.0000 0.0000 16.2877 -24.1327 -10.5921 4.7077 7.1250 -0.0000 -0.0000 2.6178 -41.5457 0.2232
8.1394 16.7428 -3.2791 -4539.8600 -95.3643 4556.5200 0.0000 -0.0000 0.0000 -11.2566 -13.5886 -42.8940 0.8800 5.9802 16.7271 0.2980 2.7472 -11.6962 0.9177 -6.1036 -17.0853 0.0000 -0.0000 0.0000 28.2088 4.9470 -6.4204 -1.1272 -6.7435 18.9578 -0.5012 -0.8118 -13.6924 -0.8518 5.8862 -16.4546 4.2741 2.5315 0.8693 0.0333 3.3393 2.1078 -2.3214 1.7303 1.9242 -2.8465 -0.6948 -17.0186 2.2915 -1.4047 29.7293 1.1089 -0.8202 12.7641 -0.0000 -0.0000 0.0000 -84.7933 7.4626 26.8251 18.9842 -29.3990 -5.0231 -0.0000 0.0000 -4.9808 20.3429 3.0962 1.1472 -7.1250 0.0000 -0.0000 -5.1033 33.2506 1.4746 -0.0000 -0.0000 0.0000 84.3895 6.5400 28.2505 -20.6992 31.4755 -5.8921 0.0000 0.0000 16.0732 -23.8268 -10.2719 4.5026 7.1250 -0.0000 -0.0000 2.8514 -41.1689 0.2697
8.1389 16.7179 -3.2612 -4541.3100 -95.2405 4557.9000 0.0000 -0.0000 0.0000 -10.8162 -14.3536 -42.2352 0.6729 5.2454 14.6097 0.3306 3.4788 -12.7088 0.8863 -6.0010 -16.7873 0.0000 -0.0000 0.0000 28.2521 4.4352 -5.1111 -1.0419 -6.4915 18.2174 -0.4863 -0.7819 -13.4786 -0.9296 6.1419 -17.1967 4.1090 2.5759 0.9429 -0.0149 3.4010 2.1642 -2.2799 1.7597 1.9384 -2.7688 -0.6660 -17.0444 2.2460 -1.3658 29.6615 1.0838 -0.7985 12.7395 0.0000 -0.0000 0.0000 -84.8100 7.5057 26.6169 18.5290 -28.8292 -4.8016 -0.0000 0.0000 -5.0285 20.5734 3.2462 1.2176 -7.1250 0.0000 -0.0000 -4.9277 33.4173 1.4036 0.0000 -0.0000 0.0000 84.3158 6.7544 28.5993 -21.0426 31.8780 -6.0724 0.0000 0.0000 16.0161 -23.5602 -9.9718 4.3182 7.1250 -0.0000 -0.0000 3.0515 -40.8190 0.3150
8.1328 16.6825 -3.2440 -4542.8700 -94.9947 4559.4200 0.0000 -0.0000 0.0000 -10.8079 -14.6526 -41.7413 0.5291 4.6613 12.9450 0.3441 3.8649 -13.1866 0.8420 -5.8532 -16.3590 0.0000 -0.0000 0.0000 28.1525 4.0813 -3.9895 -0.9985 -6.3589 17.8294 -0.4830 -0.5854 -13.3536 -0.9662 6.2584 -17.5359 3.7789 2.6318 0.9109 -0.0758 3.4748 2.2122 -2.1544 1.7931 1.9940 -2.7533 -0.6152 -17.0011 2.3212 -1.3182 29.5795 1.1171 -0.7651 12.6955 -0.0000 -0.0000 0.0000 -84.8303 7.5398 26.3601 18.0296 -28.1951 -4.5632 -0.0000 0.0000 -4.7994 20.7150 3.3935 1.2824 -7.1250 0.0000 -0.0000 -4.8239 33.5788 1.3550 -0.0000 -0.0000 0.0000 84.2176 6.9642 28.9660 -21.2922 32.1678 -6.2047 0.0000 0.0000 16.2665 -23.2617 -9.6626 4.1269 7.1250 -0.0000 -0.0000 3.2778 -40.4579 0.3675
8.1253 16.6411 -3.2310 -4543.8800 -94.7511 4560.5300 0.0000 -0.0000 0.0000 -11.3362 -14.3005 -41.7064 0.4447 4.2786 11.8619 0.3181 3.8701 -12.7944 0.8774 -5.9717 -16.7024 0.0000 -0.0000 0.0000 28.0074 3.7625 -3.2033 -0.9870 -6.3235 17.7261 -0.4705 -0.4310 -13.1213 -1.0684 6.5710 -18.4505 3.3320 2.6621 0.7246 -0.1432 3.5114 2.2335 -1.9643 1.8065 2.0987 -2.6849 -0.5656 -17.0879 2.3462 -1.2747 29.6180 1.1220 -0.7347 12.7277 0.0000 0.0000 0.0000 -84.8338 7.4510 26.0752 17.4587 -27.4586 -4.2967 -0.0000 0.0000 -4.6438 20.9782 3.3856 1.2972 -7.1250 0.0000 -0.0000 -4.6088 33.5791 1.2942 0.0000 0.0000 0.0000 84.1953 7.2511 29.2456 -21.4845 32.3895 -6.3075 0.0000 0.0000 16.3042 -23.1343 -9.5081 4.0370 7.1250 -0.0000 -0.0000 3.3714 -40.2799 0.3929
8.1082 16.5943 -3.2146 -4546.8100 -94.5283 4563.5100 0.0000 -0.0000 0.0000 -12.0094 -13.5621 -41.8810 0.4244 4.1810 11.5863 0.2881 3.4218 -11.9900 0.9403 -6.1762 -17.2965 0.0000 -0.0000 0.0000 27.9070 3.5004 -2.4298 -1.0021 -6.3702 17.8624 -0.4612 -0.1049 -12.8692 -1.1965 6.9406 -19.5395 3.0362 2.7472 0.5346 -0.2353 3.6231 2.2235 -1.8824 1.8595 2.1885 -2.5831 -0.5304 -16.9903 2.4540 -1.2978 29.6195 1.1419 -0.7214 12.7084 -0.0000 0.0000 0.0000 -84.7006 7.4685 25.9910 16.9468 -26.7876 -4.0633 -0.0000 0.0000 -4.4185 21.0906 3.7515 1.4456 -7.1250 0.0000 -0.0000 -4.5450 33.9735 1.2326 -0.0000 0.0000 0.0000 84.2667 7.4156 29.4220 -21.6245 32.5501 -6.3826 0.0000 0.0000 16.4817 -23.0011 -9.3299 3.9368 7.1250 -0.0000 -0.0000 3.4672 -40.0763 0.4214
8.0833 16.5482 -3.1938 -4550.8300 -94.3271 4567.4900 0.0000 -0.0000 0.0000 -12.5951 -12.8675 -42.2948 0.4855 4.4680 12.3971 0.2536 2.4403 -10.7321 0.8393 -5.8439 -16.3322 0.0000 -0.0000 0.0000 27.7789 3.1584 -1.6024 -1.0252 -6.4409 18.0693 -0.4449 0.3924 -12.4696 -1.3048 7.2362 -20.4169 2.7864 2.8180 0.3978 -0.3025 3.7170 2.2322 -1.8027 1.9037 2.2676 -2.4901 -0.4860 -16.9649 2.5059 -1.2888 29.6963 1.1475 -0.7028 12.7338 0.0000 -0.0000 0.0000 -84.6684 7.4562 25.6549 16.4057 -26.0676 -3.8225 -0.0000 0.0000 -4.0808 21.2079 3.9323 1.5243 -7.1250 0.0000 -0.0000 -4.4631 34.1709 1.1889 0.0000 -0.0000 0.0000 84.3232 7.5616 29.6245 -21.7491 32.6923 -6.4498 0.0000 0.0000 16.7044 -23.0294 -9.2640 3.9147 7.1250 -0.0000 -0.0000 3.4348 -40.0074 0.4233
8.0563 16.5106 -3.1768 -4556.0300 -94.1803 4572.7200 0.0000 -0.0000 0.0000 -12.7168 -12.5290 -42.9690 0.6355 5.1004 14.1950 0.1782 1.8204 -8.8581 0.6920 -5.3180 -14.8178 0.0000 -0.0000 0.0000 27.6954 3.0282 -0.8987 -1.0578 -6.5394 18.3576 -0.4094 0.7636 -11.8431 -1.4600 7.6367 -21.6160 2.5558 2.9096 0.1664 -0.3786 3.8385 2.1898 -1.7383 1.9619 2.3497 -2.4000 -0.4378 -16.8922 2.6513 -1.3092 29.8002 1.1849 -0.6867 12.7621 0.0000 -0.0000 0.0000 -84.5459 7.4798 25.4591 15.8988 -25.3832 -3.6025 -0.0000 0.0000 -3.7925 21.2306 4.1032 1.5923 -7.1250 0.0000 -0.0000 -4.4580 34.3544 1.1676 0.0000 -0.0000 0.0000 84.4715 7.6904 29.6916 -21.7664 32.7120 -6.4592 0.0000 0.0000 17.2118 -23.0738 -9.1976 3.8953 7.1250 -0.0000 -0.0000 3.3884 -39.9396 0.4232
8.0282 16.4853 -3.1662 -4560.6700 -94.0505 4577.3900 0.0000 -0.0000 0.0000 -12.5379 -12.5205 -43.5794 0.8623 5.9213 16.5563 0.0118 3.2003 -5.1370 0.5073 -4.5657 -12.6740 0.0000 -0.0000 0.0000 27.6175 3.1861 -0.2980 -1.1234 -6.7326 18.9256 -0.3673 0.9459 -11.1559 -1.5825 7.9363 -22.5207 2.1910 2.9732 0.0377 -0.4522 3.9282 2.1236 -1.6038 2.0003 2.3381 -2.2098 -0.3866 -16.8046 2.7048 -1.3286 29.9098 1.1697 -0.6714 12.7884 0.0000 -0.0000 0.0000 -84.4516 7.5120 25.0656 15.4233 -24.7325 -3.4011 -0.0000 0.0000 -3.1903 21.2070 4.2808 1.6590 -7.1250 0.0000 -0.0000 -4.4918 34.5431 1.1559 0.0000 -0.0000 0.0000 84.6930 7.7804 29.6914 -21.8064 32.7575 -6.4808 0.0000 0.0000 17.6271 -23.0875 -9.1045 3.8589 7.1250 -0.0000 -0.0000 3.3660 -39.8403 0.4287
8.0034 16.4640 -3.1492 -4563.1200 -93.7818 4579.7500 0.0000 -0.0000 0.0000 -12.8142 -12.3904 -43.9682 1.1230 6.7314 18.9220 -0.0571 4.3289 -2.5412 0.4714 -4.4036 -12.2149 0.0000 -0.0000 0.0000 27.2654 3.1666 -0.0256 -1.2735 -7.1521 20.1669 -0.3275 1.2415 -10.4466 -1.7231 8.2637 -23.5180 1.6506 2.9534 0.1636 -0.5500 3.9127 2.0651 -1.4135 1.9820 2.1760 -2.0777 -0.3108 -16.7652 2.7886 -1.3053 30.0579 1.1834 -0.6399 12.8401 -0.0000 0.0000 0.0000 -84.4565 7.5668 24.6110 14.9887 -24.1303 -3.2213 -0.0000 0.0000 -2.5316 21.1960 4.6874 1.8151 -7.1250 0.0000 -0.0000 -4.5349 34.9769 1.1191 -0.0000 0.0000 0.0000 84.8780 7.7911 29.7136 -21.8768 32.8375 -6.5189 0.0000 0.0000 18.2186 -23.1588 -9.1077 3.8735 7.1250 -0.0000 -0.0000 3.3041 -39.8497 0.4200
7.9861 16.4524 -3.1236 -4560.4100 -93.2281 4576.9600 0.0000 -0.0000 0.0000 -13.7347 -12.1836 -44.5937 1.4205 7.5373 21.3174 -0.0368 3.4762 -2.0240 0.2443 -3.1804 -8.7813 0.0000 -0.0000 0.0000 26.4149 2.9397 -0.2878 -1.5247 -7.7966 22.0979 -0.2845 1.9082 -9.5914 -1.8581 8.5641 -24.4409 0.8624 2.8436 0.3461 -0.7611 3.7782 2.0265 -1.2060 1.9016 1.9910 -1.9789 -0.2637 -16.8600 2.8870 -1.3226 30.3247 1.2035 -0.6278 12.9715 0.0000 -0.0000 0.0000 -84.4504 7.4888 24.1555 14.5276 -23.4840 -3.0352 -0.0000 0.0000 -1.9882 21.3371 4.8420 1.8885 -7.1250 0.0000 -0.0000 -4.4314 35.1484 1.0749 0.0000 -0.0000 0.0000 85.1604 7.8883 29.5520 -21.8897 32.8522 -6.5259 0.0000 0.0000 18.7561 -23.3009 -9.2463 3.9587 7.1250 -0.0000 -0.0000 3.1956 -40.0113 0.3935
7.9702 16.4391 -3.1017 -4544.5100 -91.8958 4561.1200 0.0000 -0.0000 0.0000 -15.3847 -12.4034 -45.0541 1.7410 8.3045 23.6428 -0.0261 3.0514 -2.2238 0.2235 -3.0432 -8.3992 0.0000 -0.0000 0.0000 24.5737 2.8486 -1.1159 -1.8979 -8.6500 24.7065 -0.2364 2.3617 -8.6699 -2.0053 8.8770 -25.4114 -0.9110 2.6823 0.3624 -1.2196 3.5789 2.0408 -0.6932 1.7739 1.9110 -1.9373 -0.2229 -16.9176 3.0751 -1.3421 30.3518 1.2663 -0.6074 12.9969 -0.0000 0.0000 0.0000 -84.3982 7.2920 23.8391 14.0751 -22.8419 -2.8572 -0.0000 0.0000 -1.4253 21.5106 5.0687 1.9943 -7.1250 0.0000 -0.0000 -4.3070 35.3989 1.0183 -0.0000 0.0000 0.0000 85.5130 7.9936 29.3377 -21.9021 32.8662 -6.5326 0.0000 0.0000 19.5147 -23.6812 -9.3059 4.0566 7.1250 -0.0000 -0.0000 2.8698 -40.1082 0.3464
